<mxfile host="app.diagrams.net" modified="2023-11-05T14:55:38.151Z" agent="Mozilla/5.0 (Macintosh; Intel Mac OS X 10_15_7) AppleWebKit/537.36 (KHTML, like Gecko) Chrome/117.0.0.0 Safari/537.36" etag="nFNzMrr0UHJXK46lOwv-" version="22.0.8" type="github">
  <diagram name="Page-1" id="2VNFa9UtIRunAeZxI7wy">
    <mxGraphModel dx="1079" dy="627" grid="1" gridSize="10" guides="1" tooltips="1" connect="1" arrows="1" fold="1" page="1" pageScale="1" pageWidth="1100" pageHeight="850" math="0" shadow="0">
      <root>
        <mxCell id="0" />
        <mxCell id="1" parent="0" />
        <mxCell id="WUQqasfJDb5mPP47UYJE-2" value="api" style="rounded=1;whiteSpace=wrap;html=1;fillColor=#fff2cc;strokeColor=#d6b656;" vertex="1" parent="1">
          <mxGeometry x="820" y="230" width="120" height="60" as="geometry" />
        </mxCell>
        <mxCell id="WUQqasfJDb5mPP47UYJE-3" value="expo push notification" style="shape=step;perimeter=stepPerimeter;whiteSpace=wrap;html=1;fixedSize=1;fillColor=#e1d5e7;strokeColor=#9673a6;" vertex="1" parent="1">
          <mxGeometry x="560" y="345" width="160" height="80" as="geometry" />
        </mxCell>
        <mxCell id="WUQqasfJDb5mPP47UYJE-4" value="app" style="rounded=1;whiteSpace=wrap;html=1;fillColor=#fff2cc;strokeColor=#d6b656;" vertex="1" parent="1">
          <mxGeometry x="400" y="230" width="120" height="60" as="geometry" />
        </mxCell>
        <mxCell id="WUQqasfJDb5mPP47UYJE-5" value="ibmi server" style="shape=cylinder3;whiteSpace=wrap;html=1;boundedLbl=1;backgroundOutline=1;size=15;fillColor=#dae8fc;strokeColor=#6c8ebf;" vertex="1" parent="1">
          <mxGeometry x="620" y="50" width="60" height="80" as="geometry" />
        </mxCell>
        <mxCell id="WUQqasfJDb5mPP47UYJE-6" value="" style="shape=flexArrow;endArrow=classic;startArrow=classic;html=1;rounded=0;entryX=1;entryY=1;entryDx=0;entryDy=-15;entryPerimeter=0;" edge="1" parent="1" target="WUQqasfJDb5mPP47UYJE-5">
          <mxGeometry width="100" height="100" relative="1" as="geometry">
            <mxPoint x="820" y="240" as="sourcePoint" />
            <mxPoint x="840" y="110" as="targetPoint" />
            <Array as="points" />
          </mxGeometry>
        </mxCell>
        <mxCell id="WUQqasfJDb5mPP47UYJE-8" value="Node.JS" style="rounded=1;whiteSpace=wrap;html=1;arcSize=50;fillColor=#d5e8d4;strokeColor=#82b366;" vertex="1" parent="1">
          <mxGeometry x="760" y="150" width="80" height="20" as="geometry" />
        </mxCell>
        <mxCell id="WUQqasfJDb5mPP47UYJE-9" value="" style="shape=flexArrow;endArrow=classic;startArrow=classic;html=1;rounded=0;exitX=1;exitY=0.5;exitDx=0;exitDy=0;entryX=0;entryY=0.5;entryDx=0;entryDy=0;" edge="1" parent="1" source="WUQqasfJDb5mPP47UYJE-4" target="WUQqasfJDb5mPP47UYJE-2">
          <mxGeometry width="100" height="100" relative="1" as="geometry">
            <mxPoint x="620" y="300" as="sourcePoint" />
            <mxPoint x="720" y="200" as="targetPoint" />
          </mxGeometry>
        </mxCell>
        <mxCell id="WUQqasfJDb5mPP47UYJE-10" value="" style="shape=flexArrow;endArrow=classic;html=1;rounded=0;" edge="1" parent="1" target="WUQqasfJDb5mPP47UYJE-3">
          <mxGeometry width="50" height="50" relative="1" as="geometry">
            <mxPoint x="820" y="290" as="sourcePoint" />
            <mxPoint x="750" y="360" as="targetPoint" />
          </mxGeometry>
        </mxCell>
        <mxCell id="WUQqasfJDb5mPP47UYJE-11" value="Node.js, expo SDK server" style="rounded=1;whiteSpace=wrap;html=1;arcSize=50;fillColor=#d5e8d4;strokeColor=#82b366;" vertex="1" parent="1">
          <mxGeometry x="760" y="330" width="100" height="40" as="geometry" />
        </mxCell>
        <mxCell id="WUQqasfJDb5mPP47UYJE-15" value="" style="shape=flexArrow;endArrow=classic;html=1;rounded=0;exitX=-0.019;exitY=0.938;exitDx=0;exitDy=0;exitPerimeter=0;" edge="1" parent="1" source="WUQqasfJDb5mPP47UYJE-3" target="WUQqasfJDb5mPP47UYJE-4">
          <mxGeometry width="50" height="50" relative="1" as="geometry">
            <mxPoint x="530" y="350" as="sourcePoint" />
            <mxPoint x="580" y="300" as="targetPoint" />
          </mxGeometry>
        </mxCell>
        <mxCell id="WUQqasfJDb5mPP47UYJE-18" value="" style="verticalLabelPosition=bottom;verticalAlign=top;html=1;shadow=0;dashed=0;strokeWidth=1;shape=mxgraph.android.phone2;strokeColor=#c0c0c0;" vertex="1" parent="1">
          <mxGeometry x="170" y="160" width="140" height="220" as="geometry" />
        </mxCell>
        <mxCell id="WUQqasfJDb5mPP47UYJE-23" value="" style="shape=flexArrow;endArrow=classic;html=1;rounded=0;entryX=1.007;entryY=0.464;entryDx=0;entryDy=0;entryPerimeter=0;" edge="1" parent="1" target="WUQqasfJDb5mPP47UYJE-18">
          <mxGeometry width="50" height="50" relative="1" as="geometry">
            <mxPoint x="400" y="265" as="sourcePoint" />
            <mxPoint x="330" y="255" as="targetPoint" />
          </mxGeometry>
        </mxCell>
        <mxCell id="WUQqasfJDb5mPP47UYJE-24" value="push notification for auth" style="rounded=0;whiteSpace=wrap;html=1;fillColor=#dae8fc;strokeColor=#6c8ebf;" vertex="1" parent="1">
          <mxGeometry x="175" y="180" width="130" height="30" as="geometry" />
        </mxCell>
        <mxCell id="WUQqasfJDb5mPP47UYJE-25" value="client server communication" style="rounded=1;whiteSpace=wrap;html=1;fillColor=#d5e8d4;strokeColor=#82b366;" vertex="1" parent="1">
          <mxGeometry x="590" y="210" width="120" height="40" as="geometry" />
        </mxCell>
      </root>
    </mxGraphModel>
  </diagram>
</mxfile>
